<?xml version="1.0" encoding="UTF-8" standalone="no"?>
<!-- Created with Inkscape (http://www.inkscape.org/) -->

<svg
   xmlns:dc="http://purl.org/dc/elements/1.1/"
   xmlns:cc="http://creativecommons.org/ns#"
   xmlns:rdf="http://www.w3.org/1999/02/22-rdf-syntax-ns#"
   xmlns:svg="http://www.w3.org/2000/svg"
   xmlns="http://www.w3.org/2000/svg"
   xmlns:sodipodi="http://sodipodi.sourceforge.net/DTD/sodipodi-0.dtd"
   xmlns:inkscape="http://www.inkscape.org/namespaces/inkscape"
   width="384"
   height="384"
   viewBox="0 0 101.6 101.6"
   version="1.1"
   id="svg8"
   inkscape:version="0.92.1 r15371"
   sodipodi:docname="t.svg"
   inkscape:export-filename="P:\tempest\img\title.png"
   inkscape:export-xdpi="96"
   inkscape:export-ydpi="96">
  <defs
     id="defs2" />
  <sodipodi:namedview
     id="base"
     pagecolor="#ffffff"
     bordercolor="#666666"
     borderopacity="1.0"
     inkscape:pageopacity="0.0"
     inkscape:pageshadow="2"
     inkscape:zoom="0.35"
     inkscape:cx="400"
     inkscape:cy="560"
     inkscape:document-units="px"
     inkscape:current-layer="layer1"
     showgrid="false"
     units="px"
     inkscape:snap-global="true"
     showguides="false"
     inkscape:snap-object-midpoints="true" />
  <metadata
     id="metadata5">
    <rdf:RDF>
      <cc:Work
         rdf:about="">
        <dc:format>image/svg+xml</dc:format>
        <dc:type
           rdf:resource="http://purl.org/dc/dcmitype/StillImage" />
        <dc:title></dc:title>
      </cc:Work>
    </rdf:RDF>
  </metadata>
  <g
     inkscape:label="Layer 1"
     inkscape:groupmode="layer"
     id="layer1"
     transform="translate(0,-195.39998)">
    <g
       transform="translate(-166.92006,-64.908336)"
       id="g4680">
      <path
         sodipodi:nodetypes="ccccccc"
         inkscape:connector-curvature="0"
         id="rect4496-1-4-0"
         d="m 59.795835,257.31248 v 11.11249 l -7.408333,-13.22916 v 41.80417 h -6.35 v -63.5 z"
         style="opacity:0.75;fill:#c000ff;fill-opacity:1;stroke:none;stroke-width:0.52916682;stroke-linecap:butt;stroke-linejoin:miter;stroke-miterlimit:4;stroke-dasharray:none;stroke-opacity:1" />
      <path
         sodipodi:nodetypes="ccccccc"
         inkscape:connector-curvature="0"
         id="rect4496-1-4-3-4"
         d="m 56.620834,257.84165 v 7.40833 l 8.466666,-4.23334 v 35.98334 h 6.35 v -46.56667 z"
         style="opacity:0.75;fill:#c000ff;fill-opacity:1;stroke:none;stroke-width:0.52916682;stroke-linecap:butt;stroke-linejoin:miter;stroke-miterlimit:4;stroke-dasharray:none;stroke-opacity:1" />
    </g>
    <g
       transform="translate(-166.39089,-62.319199)"
       id="g4848">
      <path
         sodipodi:nodetypes="ccccccccccc"
         inkscape:connector-curvature="0"
         id="rect4496-1-5-5-4"
         d="m 81.491667,239.84998 v 57.15 h 6.35 v -25.4 h 3.175 v -6.35 h -3.175 v -19.05 h 3.174997 v -6.35 z"
         style="opacity:0.75;fill:#c000ff;fill-opacity:1;stroke:none;stroke-width:0.52916682;stroke-linecap:butt;stroke-linejoin:miter;stroke-miterlimit:4;stroke-dasharray:none;stroke-opacity:1" />
      <path
         inkscape:connector-curvature="0"
         id="path4745-0"
         d="m 100.54166,249.37498 a 9.5249989,9.5249989 0 0 1 -9.524995,9.525 9.5249989,9.5249989 0 0 1 -9.524998,-9.525 9.5249989,9.5249989 0 0 1 9.524998,-9.525 9.5249989,9.5249989 0 0 1 9.524995,9.525 z"
         style="opacity:0.75;fill:#c000ff;fill-opacity:1;stroke:none;stroke-width:0.52916664;stroke-linecap:butt;stroke-linejoin:miter;stroke-miterlimit:4;stroke-dasharray:none;stroke-opacity:1" />
      <path
         inkscape:connector-curvature="0"
         id="path4745-7-1"
         d="m 100.54166,262.07496 a 9.5249989,9.5249989 0 0 1 -9.52499,9.525 9.5249989,9.5249989 0 0 1 -9.525003,-9.525 9.5249989,9.5249989 0 0 1 9.525003,-9.525 9.5249989,9.5249989 0 0 1 9.52499,9.525 z"
         style="opacity:0.75;fill:#c000ff;fill-opacity:1;stroke:none;stroke-width:0.52916664;stroke-linecap:butt;stroke-linejoin:miter;stroke-miterlimit:4;stroke-dasharray:none;stroke-opacity:1" />
      <path
         sodipodi:nodetypes="ccccc"
         inkscape:connector-curvature="0"
         id="rect4763-6"
         d="m 94.19167,249.37496 h 6.35 v 12.7 h -6.35 z"
         style="opacity:0.75;fill:#c000ff;fill-opacity:1;stroke:none;stroke-width:0.52916664;stroke-linecap:butt;stroke-linejoin:miter;stroke-miterlimit:4;stroke-dasharray:none;stroke-opacity:1" />
    </g>
    <path
       inkscape:connector-curvature="0"
       style="opacity:0.75;fill:#00ffff;fill-opacity:1;stroke:none;stroke-width:0.52916676;stroke-linecap:butt;stroke-linejoin:miter;stroke-miterlimit:4;stroke-dasharray:none;stroke-opacity:1"
       d="m -78.549221,183.88079 v 15.875 3.175 h 3.175 a 3.175,3.175 0 0 0 3.175,-3.175 v -12.7 a 3.175,3.175 0 0 0 -3.175,-3.175 z"
       id="rect4496-8-3" />
    <g
       transform="translate(-190.0712,-60.334833)"
       id="g5055">
      <path
         sodipodi:nodetypes="ccccc"
         inkscape:connector-curvature="0"
         id="rect4496-12-6-90"
         d="m 138.64187,254.66665 12.7,27.51667 h -6.35 l -12.7,-27.51667 z"
         style="opacity:0.75;fill:#c000ff;fill-opacity:1;stroke:none;stroke-width:0.52916682;stroke-linecap:butt;stroke-linejoin:miter;stroke-miterlimit:4;stroke-dasharray:none;stroke-opacity:1" />
      <path
         sodipodi:nodetypes="ccccc"
         inkscape:connector-curvature="0"
         id="rect4496-12-6-9-49"
         d="m 144.99188,257.84165 v -9.525 h 6.34999 v 9.525 z"
         style="opacity:0.75;fill:#c000ff;fill-opacity:1;stroke:none;stroke-width:0.52916682;stroke-linecap:butt;stroke-linejoin:miter;stroke-miterlimit:4;stroke-dasharray:none;stroke-opacity:1" />
      <path
         sodipodi:nodetypes="ccsc"
         style="opacity:0.75;fill:#c000ff;fill-opacity:1;stroke:none;stroke-width:0.52916664;stroke-linecap:butt;stroke-linejoin:miter;stroke-miterlimit:4;stroke-dasharray:none;stroke-opacity:1"
         d="m 151.34187,248.31666 h -19.04999 c 0,-5.26051 4.26449,-9.525 9.525,-9.525 5.26051,0 9.52499,4.26449 9.52499,9.525 z"
         id="path4745-7-1-8-9"
         inkscape:connector-curvature="0" />
      <path
         style="opacity:0.75;fill:#00ffff;fill-opacity:1;stroke:none;stroke-width:0.52916664;stroke-linecap:butt;stroke-linejoin:miter;stroke-miterlimit:4;stroke-dasharray:none;stroke-opacity:1"
         d="m 144.99188,248.31665 a 3.1750013,3.1750013 0 0 1 -3.175,3.175 3.1750013,3.1750013 0 0 1 -3.175,-3.175 3.1750013,3.1750013 0 0 1 3.175,-3.175 3.1750013,3.1750013 0 0 1 3.175,3.175 z"
         id="path4745-7-1-8-7-4"
         inkscape:connector-curvature="0" />
      <path
         sodipodi:nodetypes="ccccc"
         inkscape:connector-curvature="0"
         id="rect4496-12-6-9-4-2"
         d="m 132.2918,254.66665 v -6.35 h 6.34999 v 6.35 z"
         style="opacity:0.75;fill:#c000ff;fill-opacity:1;stroke:none;stroke-width:0.52916682;stroke-linecap:butt;stroke-linejoin:miter;stroke-miterlimit:4;stroke-dasharray:none;stroke-opacity:1" />
      <path
         sodipodi:nodetypes="ccccc"
         inkscape:connector-curvature="0"
         id="rect4496-12-6-9-3-5"
         d="m 151.34173,288.53332 v -6.35 h -6.34999 v 6.35 z"
         style="opacity:0.75;fill:#c000ff;fill-opacity:1;stroke:none;stroke-width:0.52916682;stroke-linecap:butt;stroke-linejoin:miter;stroke-miterlimit:4;stroke-dasharray:none;stroke-opacity:1" />
      <path
         sodipodi:nodetypes="ccccc"
         inkscape:connector-curvature="0"
         id="rect4496-12-6-9-4-8-5"
         d="m 138.64166,288.53332 v -9.525 h -6.34999 v 9.525 z"
         style="opacity:0.75;fill:#c000ff;fill-opacity:1;stroke:none;stroke-width:0.52916682;stroke-linecap:butt;stroke-linejoin:miter;stroke-miterlimit:4;stroke-dasharray:none;stroke-opacity:1" />
      <path
         sodipodi:nodetypes="ccsc"
         style="opacity:0.75;fill:#c000ff;fill-opacity:1;stroke:none;stroke-width:0.52916664;stroke-linecap:butt;stroke-linejoin:miter;stroke-miterlimit:4;stroke-dasharray:none;stroke-opacity:1"
         d="m 151.34166,288.53332 h -19.04999 c 0,5.26051 4.26449,9.525 9.525,9.525 5.26051,0 9.52499,-4.26449 9.52499,-9.525 z"
         id="path4745-7-1-8-2-7"
         inkscape:connector-curvature="0" />
      <path
         style="opacity:0.75;fill:#00ffff;fill-opacity:1;stroke:none;stroke-width:0.52916664;stroke-linecap:butt;stroke-linejoin:miter;stroke-miterlimit:4;stroke-dasharray:none;stroke-opacity:1"
         d="m 138.64175,288.53333 a 3.1750013,3.1750013 0 0 0 3.175,3.175 3.1750013,3.1750013 0 0 0 3.175,-3.175 3.1750013,3.1750013 0 0 0 -3.175,-3.175 3.1750013,3.1750013 0 0 0 -3.175,3.175 z"
         id="path4745-7-1-8-7-9-4"
         inkscape:connector-curvature="0" />
    </g>
    <path
       style="opacity:1;fill:#ffd800;fill-opacity:1;stroke:none;stroke-width:0.5291667;stroke-linecap:butt;stroke-linejoin:miter;stroke-miterlimit:4;stroke-dasharray:none;stroke-opacity:1"
       d="m -61.815824,7.5485088 h 19.050005 v 6.3499902 l -6.350002,1e-5 v 50.8 h -6.350003 v -50.8 l -6.35,-1e-5 z"
       id="rect4496"
       inkscape:connector-curvature="0"
       sodipodi:nodetypes="ccccccccc" />
    <path
       style="opacity:1;fill:#ffd800;fill-opacity:1;stroke:none;stroke-width:0.5291667;stroke-linecap:butt;stroke-linejoin:miter;stroke-miterlimit:4;stroke-dasharray:none;stroke-opacity:1"
       d="M -34.299153,7.5484988 V 64.698499 h 16.933333 v -6.35 h -10.583333 v -19.05 h 6.35 v -6.35 h -6.35 v -19.05 H -17.36582 V 7.5484988 Z"
       id="rect4496-1"
       inkscape:connector-curvature="0"
       sodipodi:nodetypes="ccccccccccccc" />
    <path
       style="opacity:1;fill:#ffd800;fill-opacity:1;stroke:none;stroke-width:0.5291667;stroke-linecap:butt;stroke-linejoin:miter;stroke-miterlimit:4;stroke-dasharray:none;stroke-opacity:1"
       d="M -8.8991528,1.1984988 V 64.698499 h 6.35 v -41.80417 l 5.32474,9.50847 7.3752618,-3.68763 c 0,16.58055 0,33.16111 0,49.74166 l 9.525,-1.5875 -4.7625,56.091671 11.1125,-63.500001 -9.525,1.5875 c 0,-17.63889 0,-35.27778 0,-52.91667 l -12.1160598,6.05803 z"
       id="rect4496-1-4"
       inkscape:connector-curvature="0"
       sodipodi:nodetypes="cccccccccccccc" />
    <path
       style="opacity:1;fill:#ffd800;fill-opacity:1;stroke:none;stroke-width:0.52916676;stroke-linecap:butt;stroke-linejoin:miter;stroke-miterlimit:4;stroke-dasharray:none;stroke-opacity:1"
       d="m 105.40092,7.5485088 h 19.05 v 6.3499902 l -6.35,1e-5 v 50.8 h -6.35 v -50.8 l -6.35,-1e-5 z"
       id="rect4496-12"
       inkscape:connector-curvature="0"
       sodipodi:nodetypes="ccccccccc" />
    <path
       style="opacity:1;fill:#ffd800;fill-opacity:1;stroke:none;stroke-width:0.52916676;stroke-linecap:butt;stroke-linejoin:miter;stroke-miterlimit:4;stroke-dasharray:none;stroke-opacity:1"
       d="M 54.600969,7.5484988 V 64.698499 h 16.93343 v -6.35 h -10.58339 v -19.05 h 6.35003 v -6.35 h -6.35003 v -19.05 h 10.58339 V 7.5484988 Z"
       id="rect4496-1-5"
       inkscape:connector-curvature="0"
       sodipodi:nodetypes="ccccccccccccc" />
    <path
       style="opacity:1;fill:#ffd800;fill-opacity:1;stroke:none;stroke-width:0.52916676;stroke-linecap:butt;stroke-linejoin:miter;stroke-miterlimit:4;stroke-dasharray:none;stroke-opacity:1"
       d="m 27.084179,7.5484988 v 9.5250002 12.7 34.925 h 6.35 v -25.4 h 3.175 a 9.5249988,9.5249988 0 0 0 9.52505,-9.525 v -12.7 a 9.5249988,9.5249988 0 0 0 -9.52505,-9.5250002 z m 6.35,6.3500002 h 3.175 a 3.175,3.175 0 0 1 3.17502,3.175 v 12.7 a 3.175,3.175 0 0 1 -3.17502,3.175 h -3.175 v -3.175 z"
       id="rect4496-1-5-5"
       inkscape:connector-curvature="0" />
    <path
       style="opacity:1;fill:#ffd800;fill-opacity:1;stroke:none;stroke-width:0.52916676;stroke-linecap:butt;stroke-linejoin:miter;stroke-miterlimit:4;stroke-dasharray:none;stroke-opacity:1"
       d="m 89.525909,6.4901688 c -5.26051,0 -9.525,4.2644902 -9.525,9.5250002 -0.6955,14.69663 12.7,25.52002 12.7,40.21666 a 3.1750013,3.1750013 0 0 1 -3.175,3.175 3.1750013,3.1750013 0 0 1 -3.175,-3.175 v -9.525 h -6.35 v 9.525 c 0,5.26051 4.26449,9.525 9.525,9.525 5.26051,0 9.525,-4.26449 9.525,-9.525 0.6955,-14.69664 -12.7,-25.52003 -12.7,-40.21666 a 3.1750013,3.1750013 0 0 1 3.175,-3.175 3.1750013,3.1750013 0 0 1 3.175,3.175 v 9.525 h 6.35 v -9.525 c 0,-5.26051 -4.26449,-9.5250002 -9.525,-9.5250002 z"
       id="rect4496-12-6"
       inkscape:connector-curvature="0" />
    <path
       sodipodi:nodetypes="ccccc"
       inkscape:connector-curvature="0"
       id="rect4496-1-4-3-4-0"
       d="m 141.38444,25.540189 -1e-5,23.28333 h 4.23333 v -25.40001 z"
       style="opacity:1;fill:#ffd800;fill-opacity:1;stroke:none;stroke-width:0.52916682;stroke-linecap:butt;stroke-linejoin:miter;stroke-miterlimit:4;stroke-dasharray:none;stroke-opacity:1" />
    <path
       sodipodi:nodetypes="ccccccc"
       inkscape:connector-curvature="0"
       id="rect4496-1-4-3-4-0-1"
       d="m 180.25259,14.41554 v 7.40833 l 4.23332,-2.11668 v 27.51667 h 6.35 v -38.1 z"
       style="opacity:1;fill:#ffd800;fill-opacity:1;stroke:none;stroke-width:0.52916682;stroke-linecap:butt;stroke-linejoin:miter;stroke-miterlimit:4;stroke-dasharray:none;stroke-opacity:1" />
    <path
       sodipodi:nodetypes="ccccccc"
       inkscape:connector-curvature="0"
       id="rect4496-1-4-3-4-0-9"
       d="m 202.66658,18.837858 v 7.40833 l 4.23332,-2.11668 v 23.28334 h 6.35 v -33.86667 z"
       style="opacity:1;fill:#ffd800;fill-opacity:1;stroke:none;stroke-width:0.52916682;stroke-linecap:butt;stroke-linejoin:miter;stroke-miterlimit:4;stroke-dasharray:none;stroke-opacity:1" />
    <path
       style="opacity:1;fill:#ffd800;fill-opacity:1;stroke:none;stroke-width:0.52916676;stroke-linecap:butt;stroke-linejoin:miter;stroke-miterlimit:4;stroke-dasharray:none;stroke-opacity:1"
       d="m 164.92061,181.12456 h 9.52499 v 3.17499 l -3.17499,1e-5 v 13.75832 h -3.17501 v -13.75832 l -3.17499,-1e-5 z"
       id="rect4496-7"
       inkscape:connector-curvature="0"
       sodipodi:nodetypes="ccccccccc" />
    <path
       style="opacity:1;fill:#ffd800;fill-opacity:1;stroke:none;stroke-width:0.52916676;stroke-linecap:butt;stroke-linejoin:miter;stroke-miterlimit:4;stroke-dasharray:none;stroke-opacity:1"
       d="m 168.0956,196.20574 v 4.49792 l 4.7625,-0.79375 -2.38125,28.04584 5.55625,-31.75 -4.7625,0.79375 v -0.79376 z"
       id="rect4496-1-4-8"
       inkscape:connector-curvature="0"
       sodipodi:nodetypes="cccccccc" />
    <path
       style="opacity:1;fill:#00ff00;fill-opacity:1;stroke:#001c34;stroke-width:6.3499999;stroke-linecap:butt;stroke-linejoin:miter;stroke-miterlimit:4;stroke-dasharray:none;stroke-opacity:1"
       d="m -3.7041667,299.11665 3.17498993,-0.52917 -1.58748993,11.1125 5.8208236,-14.81667 -3.17499027,0.52917 1.58749997,-11.11251 z"
       id="rect4496-1-4-8-8-3"
       inkscape:connector-curvature="0"
       sodipodi:nodetypes="ccccccc" />
    <path
       style="opacity:1;fill:#ffd800;fill-opacity:1;stroke:none;stroke-width:0.52916682;stroke-linecap:butt;stroke-linejoin:miter;stroke-miterlimit:4;stroke-dasharray:none;stroke-opacity:1"
       d="m -3.7041619,299.11665 3.17498997,-0.52917 -1.58748997,11.1125 5.8208232,-14.81667 -3.17498997,0.52917 1.58749997,-11.11251 z"
       id="rect4496-1-4-8-8"
       inkscape:connector-curvature="0"
       sodipodi:nodetypes="ccccccc" />
    <path
       style="opacity:1;fill:#001c34;fill-opacity:1;stroke:none;stroke-width:0.52916682;stroke-linecap:butt;stroke-linejoin:miter;stroke-miterlimit:4;stroke-dasharray:none;stroke-opacity:1"
       d="m 41.275002,193.81248 v 52.3875 l 9.525001,-1.5875 -4.762503,56.09167 6.350002,-7.40834 11.112501,-63.5 -9.525001,1.5875 v -39.6875 z"
       id="rect4496-1-4-5-9"
       inkscape:connector-curvature="0"
       sodipodi:nodetypes="ccccccccc" />
    <path
       style="opacity:1;fill:#ffd800;fill-opacity:1;stroke:none;stroke-width:0.52916676;stroke-linecap:butt;stroke-linejoin:miter;stroke-miterlimit:4;stroke-dasharray:none;stroke-opacity:1"
       d="m 44.450002,196.45831 v 46.0375 l 9.525001,-1.5875 -4.762501,56.09167 11.112501,-63.5 -9.525001,1.5875 v -39.6875 z"
       id="rect4496-1-4-5"
       inkscape:connector-curvature="0"
       sodipodi:nodetypes="cccccccc" />
  </g>
</svg>
