<?xml version="1.0" encoding="UTF-8" standalone="no"?>
<!-- Created with Inkscape (http://www.inkscape.org/) -->

<svg
   xmlns:dc="http://purl.org/dc/elements/1.1/"
   xmlns:cc="http://creativecommons.org/ns#"
   xmlns:rdf="http://www.w3.org/1999/02/22-rdf-syntax-ns#"
   xmlns:svg="http://www.w3.org/2000/svg"
   xmlns="http://www.w3.org/2000/svg"
   xmlns:sodipodi="http://sodipodi.sourceforge.net/DTD/sodipodi-0.dtd"
   xmlns:inkscape="http://www.inkscape.org/namespaces/inkscape"
   width="128"
   height="128"
   viewBox="0 0 33.866667 33.866667"
   version="1.1"
   id="svg8"
   inkscape:version="0.92.1 r15371"
   sodipodi:docname="favicon-1.svg"
   inkscape:export-filename="P:\tempest\development\favicon-1.png"
   inkscape:export-xdpi="96"
   inkscape:export-ydpi="96">
  <defs
     id="defs2" />
  <sodipodi:namedview
     id="base"
     pagecolor="#ffffff"
     bordercolor="#666666"
     borderopacity="1.0"
     inkscape:pageopacity="0.0"
     inkscape:pageshadow="2"
     inkscape:zoom="0.35"
     inkscape:cx="400"
     inkscape:cy="560"
     inkscape:document-units="px"
     inkscape:current-layer="layer1"
     showgrid="false"
     units="px"
     inkscape:snap-global="true"
     showguides="false"
     inkscape:snap-object-midpoints="true"
     inkscape:lockguides="true" />
  <metadata
     id="metadata5">
    <rdf:RDF>
      <cc:Work
         rdf:about="">
        <dc:format>image/svg+xml</dc:format>
        <dc:type
           rdf:resource="http://purl.org/dc/dcmitype/StillImage" />
        <dc:title />
      </cc:Work>
    </rdf:RDF>
  </metadata>
  <g
     inkscape:label="Layer 1"
     inkscape:groupmode="layer"
     id="layer1"
     transform="translate(0,-263.13331)">
    <g
       transform="translate(-51.729421,-245.13424)"
       id="g4680">
      <path
         sodipodi:nodetypes="ccccccc"
         inkscape:connector-curvature="0"
         id="rect4496-1-4-0"
         d="m 59.795835,257.31248 v 11.11249 l -7.408333,-13.22916 v 41.80417 h -6.35 v -63.5 z"
         style="opacity:0.75;fill:#c000ff;fill-opacity:1;stroke:none;stroke-width:0.52916682;stroke-linecap:butt;stroke-linejoin:miter;stroke-miterlimit:4;stroke-dasharray:none;stroke-opacity:1" />
      <path
         sodipodi:nodetypes="ccccccc"
         inkscape:connector-curvature="0"
         id="rect4496-1-4-3-4"
         d="m 56.620834,257.84165 v 7.40833 l 8.466666,-4.23334 v 35.98334 h 6.35 v -46.56667 z"
         style="opacity:0.75;fill:#c000ff;fill-opacity:1;stroke:none;stroke-width:0.52916682;stroke-linecap:butt;stroke-linejoin:miter;stroke-miterlimit:4;stroke-dasharray:none;stroke-opacity:1" />
    </g>
    <g
       transform="translate(-52.182989,-245.19093)"
       id="g4848">
      <path
         sodipodi:nodetypes="ccccccccccc"
         inkscape:connector-curvature="0"
         id="rect4496-1-5-5-4"
         d="m 81.491667,239.84998 v 57.15 h 6.35 v -25.4 h 3.175 v -6.35 h -3.175 v -19.05 h 3.174997 v -6.35 z"
         style="opacity:0.75;fill:#c000ff;fill-opacity:1;stroke:none;stroke-width:0.52916682;stroke-linecap:butt;stroke-linejoin:miter;stroke-miterlimit:4;stroke-dasharray:none;stroke-opacity:1" />
      <path
         inkscape:connector-curvature="0"
         id="path4745-0"
         d="m 100.54166,249.37498 a 9.5249989,9.5249989 0 0 1 -9.524995,9.525 9.5249989,9.5249989 0 0 1 -9.524998,-9.525 9.5249989,9.5249989 0 0 1 9.524998,-9.525 9.5249989,9.5249989 0 0 1 9.524995,9.525 z"
         style="opacity:0.75;fill:#c000ff;fill-opacity:1;stroke:none;stroke-width:0.52916664;stroke-linecap:butt;stroke-linejoin:miter;stroke-miterlimit:4;stroke-dasharray:none;stroke-opacity:1" />
      <path
         inkscape:connector-curvature="0"
         id="path4745-7-1"
         d="m 100.54166,262.07496 a 9.5249989,9.5249989 0 0 1 -9.52499,9.525 9.5249989,9.5249989 0 0 1 -9.525003,-9.525 9.5249989,9.5249989 0 0 1 9.525003,-9.525 9.5249989,9.5249989 0 0 1 9.52499,9.525 z"
         style="opacity:0.75;fill:#c000ff;fill-opacity:1;stroke:none;stroke-width:0.52916664;stroke-linecap:butt;stroke-linejoin:miter;stroke-miterlimit:4;stroke-dasharray:none;stroke-opacity:1" />
      <path
         sodipodi:nodetypes="ccccc"
         inkscape:connector-curvature="0"
         id="rect4763-6"
         d="m 94.19167,249.37496 h 6.35 v 12.7 h -6.35 z"
         style="opacity:0.75;fill:#c000ff;fill-opacity:1;stroke:none;stroke-width:0.52916664;stroke-linecap:butt;stroke-linejoin:miter;stroke-miterlimit:4;stroke-dasharray:none;stroke-opacity:1" />
    </g>
    <path
       inkscape:connector-curvature="0"
       style="opacity:0.75;fill:#00ffff;fill-opacity:1;stroke:none;stroke-width:0.52916676;stroke-linecap:butt;stroke-linejoin:miter;stroke-miterlimit:4;stroke-dasharray:none;stroke-opacity:1"
       d="m 35.65868,1.009057 v 15.875 3.175 h 3.175 a 3.175,3.175 0 0 0 3.175,-3.175 v -12.7 a 3.175,3.175 0 0 0 -3.175,-3.175 z"
       id="rect4496-8-3" />
    <g
       transform="translate(-48.800204,-246.23038)"
       id="g5055">
      <path
         sodipodi:nodetypes="ccccc"
         inkscape:connector-curvature="0"
         id="rect4496-12-6-90"
         d="m 138.64187,254.66665 12.7,27.51667 h -6.35 l -12.7,-27.51667 z"
         style="opacity:0.75;fill:#c000ff;fill-opacity:1;stroke:none;stroke-width:0.52916682;stroke-linecap:butt;stroke-linejoin:miter;stroke-miterlimit:4;stroke-dasharray:none;stroke-opacity:1" />
      <path
         sodipodi:nodetypes="ccccc"
         inkscape:connector-curvature="0"
         id="rect4496-12-6-9-49"
         d="m 144.99188,257.84165 v -9.525 h 6.34999 v 9.525 z"
         style="opacity:0.75;fill:#c000ff;fill-opacity:1;stroke:none;stroke-width:0.52916682;stroke-linecap:butt;stroke-linejoin:miter;stroke-miterlimit:4;stroke-dasharray:none;stroke-opacity:1" />
      <path
         sodipodi:nodetypes="ccsc"
         style="opacity:0.75;fill:#c000ff;fill-opacity:1;stroke:none;stroke-width:0.52916664;stroke-linecap:butt;stroke-linejoin:miter;stroke-miterlimit:4;stroke-dasharray:none;stroke-opacity:1"
         d="m 151.34187,248.31666 h -19.04999 c 0,-5.26051 4.26449,-9.525 9.525,-9.525 5.26051,0 9.52499,4.26449 9.52499,9.525 z"
         id="path4745-7-1-8-9"
         inkscape:connector-curvature="0" />
      <path
         style="opacity:0.75;fill:#00ffff;fill-opacity:1;stroke:none;stroke-width:0.52916664;stroke-linecap:butt;stroke-linejoin:miter;stroke-miterlimit:4;stroke-dasharray:none;stroke-opacity:1"
         d="m 144.99188,248.31665 a 3.1750013,3.1750013 0 0 1 -3.175,3.175 3.1750013,3.1750013 0 0 1 -3.175,-3.175 3.1750013,3.1750013 0 0 1 3.175,-3.175 3.1750013,3.1750013 0 0 1 3.175,3.175 z"
         id="path4745-7-1-8-7-4"
         inkscape:connector-curvature="0" />
      <path
         sodipodi:nodetypes="ccccc"
         inkscape:connector-curvature="0"
         id="rect4496-12-6-9-4-2"
         d="m 132.2918,254.66665 v -6.35 h 6.34999 v 6.35 z"
         style="opacity:0.75;fill:#c000ff;fill-opacity:1;stroke:none;stroke-width:0.52916682;stroke-linecap:butt;stroke-linejoin:miter;stroke-miterlimit:4;stroke-dasharray:none;stroke-opacity:1" />
      <path
         sodipodi:nodetypes="ccccc"
         inkscape:connector-curvature="0"
         id="rect4496-12-6-9-3-5"
         d="m 151.34173,288.53332 v -6.35 h -6.34999 v 6.35 z"
         style="opacity:0.75;fill:#c000ff;fill-opacity:1;stroke:none;stroke-width:0.52916682;stroke-linecap:butt;stroke-linejoin:miter;stroke-miterlimit:4;stroke-dasharray:none;stroke-opacity:1" />
      <path
         sodipodi:nodetypes="ccccc"
         inkscape:connector-curvature="0"
         id="rect4496-12-6-9-4-8-5"
         d="m 138.64166,288.53332 v -9.525 h -6.34999 v 9.525 z"
         style="opacity:0.75;fill:#c000ff;fill-opacity:1;stroke:none;stroke-width:0.52916682;stroke-linecap:butt;stroke-linejoin:miter;stroke-miterlimit:4;stroke-dasharray:none;stroke-opacity:1" />
      <path
         sodipodi:nodetypes="ccsc"
         style="opacity:0.75;fill:#c000ff;fill-opacity:1;stroke:none;stroke-width:0.52916664;stroke-linecap:butt;stroke-linejoin:miter;stroke-miterlimit:4;stroke-dasharray:none;stroke-opacity:1"
         d="m 151.34166,288.53332 h -19.04999 c 0,5.26051 4.26449,9.525 9.525,9.525 5.26051,0 9.52499,-4.26449 9.52499,-9.525 z"
         id="path4745-7-1-8-2-7"
         inkscape:connector-curvature="0" />
      <path
         style="opacity:0.75;fill:#00ffff;fill-opacity:1;stroke:none;stroke-width:0.52916664;stroke-linecap:butt;stroke-linejoin:miter;stroke-miterlimit:4;stroke-dasharray:none;stroke-opacity:1"
         d="m 138.64175,288.53333 a 3.1750013,3.1750013 0 0 0 3.175,3.175 3.1750013,3.1750013 0 0 0 3.175,-3.175 3.1750013,3.1750013 0 0 0 -3.175,-3.175 3.1750013,3.1750013 0 0 0 -3.175,3.175 z"
         id="path4745-7-1-8-7-9-4"
         inkscape:connector-curvature="0" />
    </g>
    <path
       sodipodi:nodetypes="ccccccc"
       inkscape:connector-curvature="0"
       id="rect4496-1-4-3-4-0-1"
       d="m 183.45982,76.422071 v 7.40833 l 4.23332,-2.11668 v 27.516669 h 6.35 V 71.130391 Z"
       style="opacity:1;fill:#ffd800;fill-opacity:1;stroke:none;stroke-width:0.52916682;stroke-linecap:butt;stroke-linejoin:miter;stroke-miterlimit:4;stroke-dasharray:none;stroke-opacity:1" />
    <path
       sodipodi:nodetypes="ccccccc"
       inkscape:connector-curvature="0"
       id="rect4496-1-4-3-4-0-9"
       d="m 205.87381,80.844389 v 7.40833 l 4.23332,-2.11668 v 23.283341 h 6.35 V 75.552709 Z"
       style="opacity:1;fill:#ffd800;fill-opacity:1;stroke:none;stroke-width:0.52916682;stroke-linecap:butt;stroke-linejoin:miter;stroke-miterlimit:4;stroke-dasharray:none;stroke-opacity:1" />
    <path
       style="opacity:1;fill:#009900;fill-opacity:1;stroke:none;stroke-width:0.52916676;stroke-linecap:butt;stroke-linejoin:miter;stroke-miterlimit:4;stroke-dasharray:none;stroke-opacity:1"
       d="m 112.54241,270.78732 v 3.175 h 3.175 v 11.90625 1.85208 2.64584 l 4.7625,-0.79375 -2.38125,28.04583 5.55625,-31.75 -4.7625,0.79375 v -0.79375 -11.90625 h 3.175 v -3.175 z"
       id="rect4496-7"
       inkscape:connector-curvature="0" />
    <g
       id="g4531"
       transform="translate(-162.91045,-57.607036)">
      <path
         sodipodi:nodetypes="ccccccc"
         inkscape:connector-curvature="0"
         id="rect4496-1-4-8-8-3"
         d="m -3.7041667,299.11665 3.17498993,-0.52917 -1.58748993,11.1125 5.8208236,-14.81667 -3.17499027,0.52917 1.58749997,-11.11251 z"
         style="opacity:1;fill:#00ff00;fill-opacity:1;stroke:#001c34;stroke-width:6.3499999;stroke-linecap:butt;stroke-linejoin:miter;stroke-miterlimit:4;stroke-dasharray:none;stroke-opacity:1" />
      <path
         sodipodi:nodetypes="ccccccc"
         inkscape:connector-curvature="0"
         id="rect4496-1-4-8-8"
         d="m -3.7041619,299.11665 3.17498997,-0.52917 -1.58748997,11.1125 5.8208232,-14.81667 -3.17498997,0.52917 1.58749997,-11.11251 z"
         style="opacity:1;fill:#ffd800;fill-opacity:1;stroke:none;stroke-width:0.52916682;stroke-linecap:butt;stroke-linejoin:miter;stroke-miterlimit:4;stroke-dasharray:none;stroke-opacity:1" />
    </g>
    <g
       id="g4535"
       transform="translate(-207.14613,69.871309)">
      <path
         sodipodi:nodetypes="ccccccccc"
         inkscape:connector-curvature="0"
         id="rect4496-1-4-5-9"
         d="m 41.275002,193.81248 v 52.3875 l 9.525001,-1.5875 -4.762503,56.09167 6.350002,-7.40834 11.112501,-63.5 -9.525001,1.5875 v -39.6875 z"
         style="opacity:1;fill:#001c34;fill-opacity:1;stroke:none;stroke-width:0.52916682;stroke-linecap:butt;stroke-linejoin:miter;stroke-miterlimit:4;stroke-dasharray:none;stroke-opacity:1" />
      <path
         sodipodi:nodetypes="cccccccc"
         inkscape:connector-curvature="0"
         id="rect4496-1-4-5"
         d="m 44.450002,196.45831 v 46.0375 l 9.525001,-1.5875 -4.762501,56.09167 11.112501,-63.5 -9.525001,1.5875 v -39.6875 z"
         style="opacity:1;fill:#ffd800;fill-opacity:1;stroke:none;stroke-width:0.52916676;stroke-linecap:butt;stroke-linejoin:miter;stroke-miterlimit:4;stroke-dasharray:none;stroke-opacity:1" />
    </g>
    <path
       style="opacity:1;fill:#000000;fill-opacity:1;fill-rule:evenodd;stroke:none;stroke-width:0;stroke-linecap:round;stroke-linejoin:miter;stroke-miterlimit:4;stroke-dasharray:none;stroke-dashoffset:0;stroke-opacity:1"
       d="m -90.631971,174.03856 v 15.875 l 4.23333,-1.05833 v 15.87501 l 4.23334,-21.16668 -4.23334,1.05834 v -11.64167 z"
       id="rect4299-7-9-3-0-4-4-0-6-7-8-48-7-7-6-4-48-5-3-5-69-4-1-6-9"
       inkscape:connector-curvature="0"
       sodipodi:nodetypes="cccccccc" />
    <g
       id="g4536"
       transform="translate(-133.80357,-51.782739)">
      <path
         sodipodi:nodetypes="ccccc"
         inkscape:connector-curvature="0"
         id="rect4299-7-9-3-0-4-4-0-6-7-8-48-7-7-6-4-48-5-3-5-69-4-1-6-9-5"
         d="m 7.8240968,223.82378 -3.4e-6,33.86667 H 21.582427 l 7e-6,-33.86668 z"
         style="opacity:1;fill:#001c34;fill-opacity:1;fill-rule:evenodd;stroke:none;stroke-width:0;stroke-linecap:round;stroke-linejoin:miter;stroke-miterlimit:4;stroke-dasharray:none;stroke-dashoffset:0;stroke-opacity:1" />
      <path
         sodipodi:nodetypes="cccccccc"
         inkscape:connector-curvature="0"
         id="rect4299-7-9-3-0-4-4-0-6-7-8-48-7-7-6-4-48-5-3-5-69-4-1-6-8"
         d="m 10.999102,226.99879 v 15.875 l 4.23333,-1.05834 v 15.87501 l 4.23334,-21.16668 -4.23334,1.05834 v -11.64167 z"
         style="opacity:1;fill:#ffd800;fill-opacity:1;fill-rule:evenodd;stroke:none;stroke-width:0;stroke-linecap:round;stroke-linejoin:miter;stroke-miterlimit:4;stroke-dasharray:none;stroke-dashoffset:0;stroke-opacity:1" />
    </g>
    <g
       transform="translate(-168.57739,-90.903283)"
       id="g4607">
      <circle
         r="16.933334"
         cy="280.06665"
         cx="16.933334"
         id="path4603-3"
         style="opacity:1;fill:#001c34;fill-opacity:1;stroke:none;stroke-width:6.3499999;stroke-linecap:butt;stroke-linejoin:miter;stroke-miterlimit:4;stroke-dasharray:none;stroke-opacity:1" />
      <path
         sodipodi:nodetypes="cccccccc"
         inkscape:connector-curvature="0"
         id="rect4299-7-9-3-0-4-4-0-6-7-8-48-7-7-6-4-48-5-3-5-69-4-1-6-8-8"
         d="m 12.699995,266.30831 v 15.875 l 4.23333,-1.05834 v 15.87501 l 4.23334,-21.16668 -4.23334,1.05834 v -11.64167 z"
         style="opacity:1;fill:#ffd800;fill-opacity:1;fill-rule:evenodd;stroke:none;stroke-width:0;stroke-linecap:round;stroke-linejoin:miter;stroke-miterlimit:4;stroke-dasharray:none;stroke-dashoffset:0;stroke-opacity:1" />
    </g>
    <g
       transform="translate(-118.9869,-90.676482)"
       id="g4649">
      <path
         sodipodi:nodetypes="ccccccccc"
         inkscape:connector-curvature="0"
         id="rect4299-7-9-3-0-4-4-0-6-7-8-48-7-7-6-4-48-5-3-5-69-4-1-6-9-5-3"
         d="m 10.583323,263.66247 v 20.10833 l 4.23333,-1.05833 v 15.875 h 3.175 l 5.291674,-26.45834 -4.23334,1.05833 v -11.11249 z"
         style="opacity:1;fill:#001c34;fill-opacity:1;fill-rule:evenodd;stroke:none;stroke-width:0;stroke-linecap:round;stroke-linejoin:miter;stroke-miterlimit:4;stroke-dasharray:none;stroke-dashoffset:0;stroke-opacity:1" />
      <path
         sodipodi:nodetypes="cccccccc"
         inkscape:connector-curvature="0"
         id="rect4299-7-9-3-0-4-4-0-6-7-8-48-7-7-6-4-48-5-3-5-69-4-1-6-8-2"
         d="m 12.699995,265.24997 v 15.875 l 4.23333,-1.05834 v 15.87501 l 4.23334,-21.16668 -4.23334,1.05834 v -11.64167 z"
         style="opacity:1;fill:#ffd800;fill-opacity:1;fill-rule:evenodd;stroke:none;stroke-width:0;stroke-linecap:round;stroke-linejoin:miter;stroke-miterlimit:4;stroke-dasharray:none;stroke-dashoffset:0;stroke-opacity:1" />
    </g>
    <path
       style="opacity:1;fill:#009900;fill-opacity:1;fill-rule:evenodd;stroke:none;stroke-width:0;stroke-linecap:round;stroke-linejoin:miter;stroke-miterlimit:4;stroke-dasharray:none;stroke-dashoffset:0;stroke-opacity:1"
       d="m 56.302735,296.5207 v 15.875 l 4.23333,-1.05833 v 15.87501 l 4.233339,-21.16668 -4.233339,1.05834 v -11.64167 z"
       id="rect4299-7-9-3-0-4-4-0-6-7-8-48-7-7-6-4-48-5-3-5-69-4-1-6-9-0"
       inkscape:connector-curvature="0"
       sodipodi:nodetypes="cccccccc" />
    <path
       style="opacity:1;fill:#ffd800;fill-opacity:1;stroke:none;stroke-width:0.5291667;stroke-linecap:butt;stroke-linejoin:miter;stroke-miterlimit:4;stroke-dasharray:none;stroke-opacity:1"
       d="m -58.60859,69.55504 h 19.050005 v 6.34999 l -6.350002,1e-5 v 50.8 h -6.350003 v -50.8 l -6.35,-1e-5 z"
       id="rect4496"
       inkscape:connector-curvature="0"
       sodipodi:nodetypes="ccccccccc" />
    <path
       style="opacity:1;fill:#ffd800;fill-opacity:1;stroke:none;stroke-width:0.5291667;stroke-linecap:butt;stroke-linejoin:miter;stroke-miterlimit:4;stroke-dasharray:none;stroke-opacity:1"
       d="m -31.091919,69.55503 v 57.15 h 16.933333 v -6.35 h -10.583333 v -19.05 h 6.35 v -6.35 h -6.35 v -19.05 h 10.583333 v -6.35 z"
       id="rect4496-1"
       inkscape:connector-curvature="0"
       sodipodi:nodetypes="ccccccccccccc" />
    <path
       style="opacity:1;fill:#ffd800;fill-opacity:1;stroke:none;stroke-width:0.5291667;stroke-linecap:butt;stroke-linejoin:miter;stroke-miterlimit:4;stroke-dasharray:none;stroke-opacity:1"
       d="m -5.6919184,63.20503 v 63.5 H 0.65808156 V 84.90086 L 5.9828216,94.40933 13.358083,90.7217 c 0,16.58055 0,33.16111 0,49.74166 l 9.525,-1.5875 -4.7625,56.09167 11.1125,-63.5 -9.525,1.5875 c 0,-17.63889 0,-35.27778 0,-52.91667 L 7.5920236,86.19639 Z"
       id="rect4496-1-4"
       inkscape:connector-curvature="0"
       sodipodi:nodetypes="cccccccccccccc" />
    <path
       style="opacity:1;fill:#ffd800;fill-opacity:1;stroke:none;stroke-width:0.52916676;stroke-linecap:butt;stroke-linejoin:miter;stroke-miterlimit:4;stroke-dasharray:none;stroke-opacity:1"
       d="m 108.60815,69.55504 h 19.05 v 6.34999 l -6.35,1e-5 v 50.8 h -6.35 v -50.8 l -6.35,-1e-5 z"
       id="rect4496-12"
       inkscape:connector-curvature="0"
       sodipodi:nodetypes="ccccccccc" />
    <path
       style="opacity:1;fill:#ffd800;fill-opacity:1;stroke:none;stroke-width:0.52916676;stroke-linecap:butt;stroke-linejoin:miter;stroke-miterlimit:4;stroke-dasharray:none;stroke-opacity:1"
       d="m 57.808203,69.55503 v 57.15 h 16.93343 v -6.35 h -10.58339 v -19.05 h 6.35003 v -6.35 h -6.35003 v -19.05 h 10.58339 v -6.35 z"
       id="rect4496-1-5"
       inkscape:connector-curvature="0"
       sodipodi:nodetypes="ccccccccccccc" />
    <path
       style="opacity:1;fill:#ffd800;fill-opacity:1;stroke:none;stroke-width:0.52916676;stroke-linecap:butt;stroke-linejoin:miter;stroke-miterlimit:4;stroke-dasharray:none;stroke-opacity:1"
       d="m 30.291413,69.55503 v 9.525 12.7 34.925 h 6.35 v -25.4 h 3.175 a 9.5249988,9.5249988 0 0 0 9.52505,-9.525 v -12.7 a 9.5249988,9.5249988 0 0 0 -9.52505,-9.525 z m 6.35,6.35 h 3.175 a 3.175,3.175 0 0 1 3.17502,3.175 v 12.7 a 3.175,3.175 0 0 1 -3.17502,3.175 h -3.175 v -3.175 z"
       id="rect4496-1-5-5"
       inkscape:connector-curvature="0" />
    <path
       style="opacity:1;fill:#ffd800;fill-opacity:1;stroke:none;stroke-width:0.52916676;stroke-linecap:butt;stroke-linejoin:miter;stroke-miterlimit:4;stroke-dasharray:none;stroke-opacity:1"
       d="m 92.733143,68.4967 c -5.26051,0 -9.525,4.26449 -9.525,9.525 -0.6955,14.69663 12.7,25.52002 12.7,40.21666 a 3.1750013,3.1750013 0 0 1 -3.175,3.175 3.1750013,3.1750013 0 0 1 -3.175,-3.175 v -9.525 h -6.35 v 9.525 c 0,5.26051 4.26449,9.525 9.525,9.525 5.26051,0 9.524997,-4.26449 9.524997,-9.525 0.6955,-14.69664 -12.699997,-25.52003 -12.699997,-40.21666 a 3.1750013,3.1750013 0 0 1 3.175,-3.175 3.1750013,3.1750013 0 0 1 3.175,3.175 v 9.525 h 6.349997 v -9.525 c 0,-5.26051 -4.264487,-9.525 -9.524997,-9.525 z"
       id="rect4496-12-6"
       inkscape:connector-curvature="0" />
    <path
       style="opacity:1;fill:#ffd800;fill-opacity:1;stroke:none;stroke-width:0.52916682;stroke-linecap:butt;stroke-linejoin:miter;stroke-miterlimit:4;stroke-dasharray:none;stroke-opacity:1"
       d="m 142.47482,88.605051 v 4.23334 l 2.11666,-1.05834 v 19.049999 h 4.23334 V 85.430041 Z"
       id="rect4496-1-4-3-4-0-4-8"
       inkscape:connector-curvature="0"
       sodipodi:nodetypes="ccccccc" />
    <path
       style="opacity:1;fill:#009900;fill-opacity:1;stroke:none;stroke-width:0.52916682;stroke-linecap:butt;stroke-linejoin:miter;stroke-miterlimit:4;stroke-dasharray:none;stroke-opacity:1"
       d="m 52.367272,266.54757 v 4.23334 l 2.11666,-1.05834 v 19.05 h 4.23334 v -25.40001 z"
       id="rect4496-1-4-3-4-0-4-8-5"
       inkscape:connector-curvature="0"
       sodipodi:nodetypes="ccccccc" />
    <path
       style="opacity:1;fill:#009900;fill-opacity:1;stroke:none;stroke-width:0.52916682;stroke-linecap:butt;stroke-linejoin:miter;stroke-miterlimit:4;stroke-dasharray:none;stroke-opacity:1"
       d="m 62.56805,272.99015 v 4.23334 l 2.11666,-1.05834 v 12.7 h 4.233336 v -19.05001 z"
       id="rect4496-1-4-3-4-0-4-8-5-3"
       inkscape:connector-curvature="0"
       sodipodi:nodetypes="ccccccc" />
    <path
       style="opacity:1;fill:#009900;fill-opacity:1;stroke:none;stroke-width:0.52916682;stroke-linecap:butt;stroke-linejoin:miter;stroke-miterlimit:4;stroke-dasharray:none;stroke-opacity:1"
       d="m 73.393021,267.14637 v 4.23334 l 3.174993,-1.58751 v 14.81667 h -3.174999 l 10e-7,4.23333 h 10.583337 l 10e-7,-4.23333 h -3.174999 v -21.16668 z"
       id="rect4496-1-4-3-4-0-4-8-5-3-2"
       inkscape:connector-curvature="0"
       sodipodi:nodetypes="ccccccccccc" />
    <path
       style="opacity:1;fill:#009900;fill-opacity:1;stroke:none;stroke-width:0.52916682;stroke-linecap:butt;stroke-linejoin:miter;stroke-miterlimit:4;stroke-dasharray:none;stroke-opacity:1"
       d="m 87.450864,274.34116 v 4.23334 l 3.174993,-1.58751 v 8.46667 h -3.174999 v 4.23333 h 10.583338 l 1e-6,-4.23333 h -3.175 v -14.81668 z"
       id="rect4496-1-4-3-4-0-4-8-5-3-7"
       inkscape:connector-curvature="0"
       sodipodi:nodetypes="ccccccccccc" />
    <path
       style="opacity:1;fill:#009900;fill-opacity:1;stroke:none;stroke-width:0.52916682;stroke-linecap:butt;stroke-linejoin:miter;stroke-miterlimit:4;stroke-dasharray:none;stroke-opacity:1"
       d="m 84.641994,310.91321 3.17498,-0.52917 -1.58749,11.1125 5.82083,-14.81667 -3.175,0.52917 1.58751,-11.11251 z"
       id="rect4496-1-4-8-8-4"
       inkscape:connector-curvature="0"
       sodipodi:nodetypes="ccccccc" />
    <path
       style="opacity:1;fill:#009900;fill-opacity:1;fill-rule:evenodd;stroke:none;stroke-width:0;stroke-linecap:round;stroke-linejoin:miter;stroke-miterlimit:4;stroke-dasharray:none;stroke-dashoffset:0;stroke-opacity:1"
       d="m 72.345088,297.605 -3.175,12.7 4.23333,-1.05833 -3.175,12.70002 8.46667,-16.93334 -4.23333,1.05833 2.11666,-8.46668 h 4.23334 l 1.05833,-4.23333 H 68.111755 l -1.05834,4.23333 z"
       id="rect4299-7-9-3-0-4-4-0-6-7-8-48-7-7-6-4-48-5-3-5-69-4-0"
       inkscape:connector-curvature="0"
       sodipodi:nodetypes="cccccccccccc" />
    <path
       style="opacity:1;fill:#009900;fill-opacity:1;stroke:none;stroke-width:0.52916682;stroke-linecap:butt;stroke-linejoin:miter;stroke-miterlimit:4;stroke-dasharray:none;stroke-opacity:1"
       d="m 102.43155,277.45861 v 3.17501 l 2.11666,-1.05834 v 10.05416 h 3.175 v -14.81667 z"
       id="rect4496-1-4-3-4-0-4-8-5-3-9"
       inkscape:connector-curvature="0"
       sodipodi:nodetypes="ccccccc" />
    <g
       transform="translate(135.84182,8.7688649)"
       id="g4575">
      <rect
         y="263.1333"
         x="0"
         height="33.866669"
         width="33.866669"
         id="rect4570-2"
         style="opacity:1;fill:#000000;fill-opacity:1;stroke:none;stroke-width:0.5291667;stroke-linecap:round;stroke-linejoin:miter;stroke-miterlimit:4;stroke-dasharray:none;stroke-opacity:1" />
      <path
         sodipodi:nodetypes="cccccccccccc"
         inkscape:connector-curvature="0"
         id="rect4299-7-9-3-0-4-4-0-6-7-8-48-7-7-6-4-48-5-3-5-69-4-0-2-9"
         d="m 10.583335,271.07079 -3.1749983,12.7 4.2333293,-1.05833 -3.1749994,12.70002 8.4666694,-16.93334 -4.23333,1.05833 2.116659,-8.46668 h 4.233341 l 1.05833,-4.23333 H 6.3500067 l -1.05834,4.23333 z"
         style="opacity:1;fill:#009900;fill-opacity:1;fill-rule:evenodd;stroke:none;stroke-width:0;stroke-linecap:round;stroke-linejoin:miter;stroke-miterlimit:4;stroke-dasharray:none;stroke-dashoffset:0;stroke-opacity:1" />
      <path
         sodipodi:nodetypes="ccccccc"
         inkscape:connector-curvature="0"
         id="rect4496-1-4-3-4-0-4-8-5-3-9-3-5"
         d="m 23.283338,269.48331 v 3.17501 l 2.11666,-1.05834 v 10.05416 h 3.175 v -14.81667 z"
         style="opacity:1;fill:#009900;fill-opacity:1;stroke:none;stroke-width:0.52916682;stroke-linecap:butt;stroke-linejoin:miter;stroke-miterlimit:4;stroke-dasharray:none;stroke-opacity:1" />
    </g>
    <g
       transform="translate(175.77134,8.4922551)"
       id="g4619">
      <rect
         y="263.1333"
         x="0"
         height="33.866669"
         width="33.866669"
         id="rect4570-3"
         style="opacity:1;fill:#000000;fill-opacity:1;stroke:none;stroke-width:0.5291667;stroke-linecap:round;stroke-linejoin:miter;stroke-miterlimit:4;stroke-dasharray:none;stroke-opacity:1" />
      <path
         sodipodi:nodetypes="ccccccc"
         inkscape:connector-curvature="0"
         id="rect4496-1-4-3-4-0-4-8-5-3-9-3-53"
         d="m 22.225004,266.83746 v 3.17501 l 2.11666,-1.05834 v 10.05416 h 3.175 v -14.81667 z"
         style="opacity:1;fill:#009900;fill-opacity:1;stroke:none;stroke-width:0.52916682;stroke-linecap:butt;stroke-linejoin:miter;stroke-miterlimit:4;stroke-dasharray:none;stroke-opacity:1" />
      <path
         sodipodi:nodetypes="cccccccc"
         inkscape:connector-curvature="0"
         id="rect4299-7-9-3-0-4-4-0-6-7-8-48-7-7-6-4-48-5-3-5-69-4-1-6-9-0-6-2"
         d="m 9.5250001,265.24996 v 15.875 l 4.2333299,-1.05833 v 15.87501 l 4.233339,-21.16668 -4.233339,1.05834 v -11.64167 z"
         style="opacity:1;fill:#009900;fill-opacity:1;fill-rule:evenodd;stroke:none;stroke-width:0;stroke-linecap:round;stroke-linejoin:miter;stroke-miterlimit:4;stroke-dasharray:none;stroke-dashoffset:0;stroke-opacity:1" />
    </g>
    <g
       transform="translate(136.35111,45.684733)"
       id="g4678">
      <rect
         y="263.1333"
         x="0"
         height="33.866669"
         width="33.866669"
         id="rect4570-4"
         style="opacity:1;fill:#000000;fill-opacity:1;stroke:none;stroke-width:0.5291667;stroke-linecap:round;stroke-linejoin:miter;stroke-miterlimit:4;stroke-dasharray:none;stroke-opacity:1" />
      <path
         sodipodi:nodetypes="ccccccc"
         inkscape:connector-curvature="0"
         id="rect4496-1-4-3-4-0-4-8-5-3-9-3-3"
         d="m 22.225004,267.8958 v 3.17501 l 2.11666,-1.05834 v 10.05416 h 3.175 v -14.81667 z"
         style="opacity:1;fill:#009900;fill-opacity:1;stroke:none;stroke-width:0.52916682;stroke-linecap:butt;stroke-linejoin:miter;stroke-miterlimit:4;stroke-dasharray:none;stroke-opacity:1" />
      <path
         sodipodi:nodetypes="ccccccc"
         inkscape:connector-curvature="0"
         id="rect4496-1-4-8-8-4-9-7"
         d="m 9.5250001,283.24164 4.2333139,-1.05834 -1.58749,12.7 6.349996,-17.99167 -4.233333,1.05834 1.58751,-12.70001 z"
         style="opacity:1;fill:#009900;fill-opacity:1;stroke:none;stroke-width:0.52916682;stroke-linecap:butt;stroke-linejoin:miter;stroke-miterlimit:4;stroke-dasharray:none;stroke-opacity:1" />
    </g>
    <path
       style="opacity:1;fill:#009900;fill-opacity:1;stroke:none;stroke-width:0.52916682;stroke-linecap:butt;stroke-linejoin:miter;stroke-miterlimit:4;stroke-dasharray:none;stroke-opacity:1"
       d="m 96.834832,311.16289 4.233318,-1.05834 -1.587488,12.7 6.349988,-17.99167 -4.23333,1.05834 1.58751,-12.70001 z"
       id="rect4496-1-4-8-8-4-9-3"
       inkscape:connector-curvature="0"
       sodipodi:nodetypes="ccccccc" />
    <path
       style="opacity:1;fill:#ffd800;fill-opacity:1;fill-rule:evenodd;stroke:none;stroke-width:0;stroke-linecap:round;stroke-linejoin:miter;stroke-miterlimit:4;stroke-dasharray:none;stroke-dashoffset:0;stroke-opacity:1"
       d="m 14.81667,271.0708 -3.175,12.7 4.233331,-1.05833 -3.175,12.70002 8.46667,-16.93334 -4.23333,1.05833 L 19.05,271.0708 h 4.233341 l 1.05833,-4.23333 H 10.58334 l -1.0583399,4.23333 z"
       id="rect4299-7-9-3-0-4-4-0-6-7-8-48-7-7-6-4-48-5-3-5-69-4-0-2-9-0"
       inkscape:connector-curvature="0"
       sodipodi:nodetypes="cccccccccccc" />
  </g>
</svg>
